<mxfile host="app.diagrams.net" modified="2023-01-07T15:46:30.211Z" agent="5.0 (Windows)" etag="8lMUfXCrGkoybFGJSlON" version="20.8.3" type="github">
  <diagram id="Y1gA3UrvAo-1b4yRYKHv" name="Page-1">
    <mxGraphModel dx="2074" dy="1182" grid="1" gridSize="10" guides="1" tooltips="1" connect="1" arrows="1" fold="1" page="1" pageScale="1" pageWidth="1100" pageHeight="850" math="0" shadow="0">
      <root>
        <mxCell id="0" />
        <mxCell id="1" parent="0" />
        <mxCell id="Ta5_EpUwE3my43b26P5T-5" value="" style="edgeStyle=orthogonalEdgeStyle;rounded=0;orthogonalLoop=1;jettySize=auto;html=1;" edge="1" parent="1" source="Ta5_EpUwE3my43b26P5T-1" target="Ta5_EpUwE3my43b26P5T-3">
          <mxGeometry relative="1" as="geometry" />
        </mxCell>
        <mxCell id="Ta5_EpUwE3my43b26P5T-9" value="" style="edgeStyle=orthogonalEdgeStyle;rounded=0;orthogonalLoop=1;jettySize=auto;html=1;" edge="1" parent="1" source="Ta5_EpUwE3my43b26P5T-1" target="Ta5_EpUwE3my43b26P5T-7">
          <mxGeometry relative="1" as="geometry" />
        </mxCell>
        <mxCell id="Ta5_EpUwE3my43b26P5T-12" value="" style="edgeStyle=orthogonalEdgeStyle;rounded=0;orthogonalLoop=1;jettySize=auto;html=1;" edge="1" parent="1" source="Ta5_EpUwE3my43b26P5T-1" target="Ta5_EpUwE3my43b26P5T-10">
          <mxGeometry relative="1" as="geometry" />
        </mxCell>
        <mxCell id="Ta5_EpUwE3my43b26P5T-15" value="" style="edgeStyle=orthogonalEdgeStyle;rounded=0;orthogonalLoop=1;jettySize=auto;html=1;exitX=1;exitY=0.25;exitDx=0;exitDy=0;" edge="1" parent="1" source="Ta5_EpUwE3my43b26P5T-11" target="Ta5_EpUwE3my43b26P5T-13">
          <mxGeometry relative="1" as="geometry" />
        </mxCell>
        <mxCell id="Ta5_EpUwE3my43b26P5T-1" value="Loan" style="swimlane;childLayout=stackLayout;horizontal=1;startSize=30;horizontalStack=0;rounded=1;fontSize=14;fontStyle=0;strokeWidth=2;resizeParent=0;resizeLast=1;shadow=0;dashed=0;align=center;fillColor=#dae8fc;strokeColor=#6c8ebf;" vertex="1" parent="1">
          <mxGeometry x="440" y="300" width="160" height="120" as="geometry" />
        </mxCell>
        <mxCell id="Ta5_EpUwE3my43b26P5T-2" value="+Attribute1&#xa;+Attribute2&#xa;+Attribute3" style="align=left;strokeColor=none;fillColor=none;spacingLeft=4;fontSize=12;verticalAlign=top;resizable=0;rotatable=0;part=1;" vertex="1" parent="Ta5_EpUwE3my43b26P5T-1">
          <mxGeometry y="30" width="160" height="90" as="geometry" />
        </mxCell>
        <mxCell id="Ta5_EpUwE3my43b26P5T-3" value="Borrower" style="swimlane;childLayout=stackLayout;horizontal=1;startSize=30;horizontalStack=0;rounded=1;fontSize=14;fontStyle=0;strokeWidth=2;resizeParent=0;resizeLast=1;shadow=0;dashed=0;align=center;fillColor=#d5e8d4;strokeColor=#82b366;" vertex="1" parent="1">
          <mxGeometry x="730" y="300" width="160" height="120" as="geometry" />
        </mxCell>
        <mxCell id="Ta5_EpUwE3my43b26P5T-4" value="+Attribute1&#xa;+Attribute2&#xa;+Attribute3" style="align=left;strokeColor=none;fillColor=none;spacingLeft=4;fontSize=12;verticalAlign=top;resizable=0;rotatable=0;part=1;" vertex="1" parent="Ta5_EpUwE3my43b26P5T-3">
          <mxGeometry y="30" width="160" height="90" as="geometry" />
        </mxCell>
        <mxCell id="Ta5_EpUwE3my43b26P5T-7" value="Milestone" style="swimlane;childLayout=stackLayout;horizontal=1;startSize=30;horizontalStack=0;rounded=1;fontSize=14;fontStyle=0;strokeWidth=2;resizeParent=0;resizeLast=1;shadow=0;dashed=0;align=center;fillColor=#f8cecc;strokeColor=#b85450;" vertex="1" parent="1">
          <mxGeometry x="130" y="300" width="160" height="120" as="geometry" />
        </mxCell>
        <mxCell id="Ta5_EpUwE3my43b26P5T-8" value="+Attribute1&#xa;+Attribute2&#xa;+Attribute3" style="align=left;strokeColor=none;fillColor=none;spacingLeft=4;fontSize=12;verticalAlign=top;resizable=0;rotatable=0;part=1;" vertex="1" parent="Ta5_EpUwE3my43b26P5T-7">
          <mxGeometry y="30" width="160" height="90" as="geometry" />
        </mxCell>
        <mxCell id="Ta5_EpUwE3my43b26P5T-18" value="" style="edgeStyle=orthogonalEdgeStyle;rounded=0;orthogonalLoop=1;jettySize=auto;html=1;" edge="1" parent="1" source="Ta5_EpUwE3my43b26P5T-10" target="Ta5_EpUwE3my43b26P5T-16">
          <mxGeometry relative="1" as="geometry" />
        </mxCell>
        <mxCell id="Ta5_EpUwE3my43b26P5T-10" value="Associate" style="swimlane;childLayout=stackLayout;horizontal=1;startSize=30;horizontalStack=0;rounded=1;fontSize=14;fontStyle=0;strokeWidth=2;resizeParent=0;resizeLast=1;shadow=0;dashed=0;align=center;fillColor=#fff2cc;strokeColor=#d6b656;" vertex="1" parent="1">
          <mxGeometry x="440" y="80" width="160" height="111" as="geometry" />
        </mxCell>
        <mxCell id="Ta5_EpUwE3my43b26P5T-11" value="+Attribute1&#xa;+Attribute2&#xa;+Attribute3" style="align=left;strokeColor=none;fillColor=none;spacingLeft=4;fontSize=12;verticalAlign=top;resizable=0;rotatable=0;part=1;" vertex="1" parent="Ta5_EpUwE3my43b26P5T-10">
          <mxGeometry y="30" width="160" height="81" as="geometry" />
        </mxCell>
        <mxCell id="Ta5_EpUwE3my43b26P5T-13" value="Shipper" style="swimlane;childLayout=stackLayout;horizontal=1;startSize=30;horizontalStack=0;rounded=1;fontSize=14;fontStyle=0;strokeWidth=2;resizeParent=0;resizeLast=1;shadow=0;dashed=0;align=center;fillColor=#b1ddf0;strokeColor=#10739e;" vertex="1" parent="1">
          <mxGeometry x="740" y="80" width="160" height="100" as="geometry" />
        </mxCell>
        <mxCell id="Ta5_EpUwE3my43b26P5T-14" value="+Attribute1&#xa;+Attribute2&#xa;+Attribute3" style="align=left;strokeColor=none;fillColor=none;spacingLeft=4;fontSize=12;verticalAlign=top;resizable=0;rotatable=0;part=1;" vertex="1" parent="Ta5_EpUwE3my43b26P5T-13">
          <mxGeometry y="30" width="160" height="70" as="geometry" />
        </mxCell>
        <mxCell id="Ta5_EpUwE3my43b26P5T-16" value="Underwriter" style="swimlane;childLayout=stackLayout;horizontal=1;startSize=30;horizontalStack=0;rounded=1;fontSize=14;fontStyle=0;strokeWidth=2;resizeParent=0;resizeLast=1;shadow=0;dashed=0;align=center;fillColor=#ffe6cc;strokeColor=#d79b00;" vertex="1" parent="1">
          <mxGeometry x="200" y="80" width="160" height="111" as="geometry" />
        </mxCell>
        <mxCell id="Ta5_EpUwE3my43b26P5T-17" value="+Attribute1&#xa;+Attribute2&#xa;+Attribute3" style="align=left;strokeColor=none;fillColor=none;spacingLeft=4;fontSize=12;verticalAlign=top;resizable=0;rotatable=0;part=1;" vertex="1" parent="Ta5_EpUwE3my43b26P5T-16">
          <mxGeometry y="30" width="160" height="81" as="geometry" />
        </mxCell>
      </root>
    </mxGraphModel>
  </diagram>
</mxfile>
